<mxfile host="app.diagrams.net" modified="2023-05-07T13:02:02.155Z" agent="Mozilla/5.0 (Windows NT 10.0; Win64; x64) AppleWebKit/537.36 (KHTML, like Gecko) Chrome/112.0.0.0 Safari/537.36" etag="ufy3VHhV5tNrVAkSfE91" version="21.2.9" type="github" pages="2">
  <diagram name="Page-1" id="2YBvvXClWsGukQMizWep">
    <mxGraphModel dx="1050" dy="549" grid="1" gridSize="10" guides="1" tooltips="1" connect="1" arrows="1" fold="1" page="1" pageScale="1" pageWidth="850" pageHeight="1100" math="0" shadow="0">
      <root>
        <mxCell id="0" />
        <mxCell id="1" parent="0" />
        <mxCell id="aM9ryv3xv72pqoxQDRHE-1" value="Visitor" style="shape=umlLifeline;perimeter=lifelinePerimeter;whiteSpace=wrap;html=1;container=0;dropTarget=0;collapsible=0;recursiveResize=0;outlineConnect=0;portConstraint=eastwest;newEdgeStyle={&quot;edgeStyle&quot;:&quot;elbowEdgeStyle&quot;,&quot;elbow&quot;:&quot;vertical&quot;,&quot;curved&quot;:0,&quot;rounded&quot;:0};" parent="1" vertex="1">
          <mxGeometry x="40" y="40" width="100" height="310" as="geometry" />
        </mxCell>
        <mxCell id="M_pwfH0sglw2_HS-6Io0-19" value="" style="html=1;points=[];perimeter=orthogonalPerimeter;outlineConnect=0;targetShapes=umlLifeline;portConstraint=eastwest;newEdgeStyle={&quot;edgeStyle&quot;:&quot;elbowEdgeStyle&quot;,&quot;elbow&quot;:&quot;vertical&quot;,&quot;curved&quot;:0,&quot;rounded&quot;:0};" vertex="1" parent="aM9ryv3xv72pqoxQDRHE-1">
          <mxGeometry x="45" y="250" width="10" height="30" as="geometry" />
        </mxCell>
        <mxCell id="aM9ryv3xv72pqoxQDRHE-5" value="App sytem" style="shape=umlLifeline;perimeter=lifelinePerimeter;whiteSpace=wrap;html=1;container=0;dropTarget=0;collapsible=0;recursiveResize=0;outlineConnect=0;portConstraint=eastwest;newEdgeStyle={&quot;edgeStyle&quot;:&quot;elbowEdgeStyle&quot;,&quot;elbow&quot;:&quot;vertical&quot;,&quot;curved&quot;:0,&quot;rounded&quot;:0};participant=label;" parent="1" vertex="1">
          <mxGeometry x="220" y="40" width="100" height="350" as="geometry" />
        </mxCell>
        <mxCell id="M_pwfH0sglw2_HS-6Io0-2" value="" style="html=1;points=[];perimeter=orthogonalPerimeter;outlineConnect=0;targetShapes=umlLifeline;portConstraint=eastwest;newEdgeStyle={&quot;edgeStyle&quot;:&quot;elbowEdgeStyle&quot;,&quot;elbow&quot;:&quot;vertical&quot;,&quot;curved&quot;:0,&quot;rounded&quot;:0};" vertex="1" parent="aM9ryv3xv72pqoxQDRHE-5">
          <mxGeometry x="45" y="80" width="10" height="40" as="geometry" />
        </mxCell>
        <mxCell id="M_pwfH0sglw2_HS-6Io0-3" value="display home srcenn" style="html=1;align=left;spacingLeft=2;endArrow=block;rounded=0;edgeStyle=orthogonalEdgeStyle;curved=0;rounded=0;" edge="1" target="M_pwfH0sglw2_HS-6Io0-2" parent="aM9ryv3xv72pqoxQDRHE-5">
          <mxGeometry relative="1" as="geometry">
            <mxPoint x="50" y="60" as="sourcePoint" />
            <Array as="points">
              <mxPoint x="80" y="90" />
            </Array>
          </mxGeometry>
        </mxCell>
        <mxCell id="M_pwfH0sglw2_HS-6Io0-5" value="" style="html=1;points=[];perimeter=orthogonalPerimeter;outlineConnect=0;targetShapes=umlLifeline;portConstraint=eastwest;newEdgeStyle={&quot;edgeStyle&quot;:&quot;elbowEdgeStyle&quot;,&quot;elbow&quot;:&quot;vertical&quot;,&quot;curved&quot;:0,&quot;rounded&quot;:0};" vertex="1" parent="aM9ryv3xv72pqoxQDRHE-5">
          <mxGeometry x="45" y="130" width="10" height="80" as="geometry" />
        </mxCell>
        <mxCell id="M_pwfH0sglw2_HS-6Io0-17" value="" style="html=1;points=[];perimeter=orthogonalPerimeter;outlineConnect=0;targetShapes=umlLifeline;portConstraint=eastwest;newEdgeStyle={&quot;edgeStyle&quot;:&quot;elbowEdgeStyle&quot;,&quot;elbow&quot;:&quot;vertical&quot;,&quot;curved&quot;:0,&quot;rounded&quot;:0};" vertex="1" parent="aM9ryv3xv72pqoxQDRHE-5">
          <mxGeometry x="45" y="230" width="10" height="50" as="geometry" />
        </mxCell>
        <mxCell id="M_pwfH0sglw2_HS-6Io0-21" value="" style="html=1;points=[];perimeter=orthogonalPerimeter;outlineConnect=0;targetShapes=umlLifeline;portConstraint=eastwest;newEdgeStyle={&quot;edgeStyle&quot;:&quot;elbowEdgeStyle&quot;,&quot;elbow&quot;:&quot;vertical&quot;,&quot;curved&quot;:0,&quot;rounded&quot;:0};" vertex="1" parent="aM9ryv3xv72pqoxQDRHE-5">
          <mxGeometry x="45" y="310" width="10" height="40" as="geometry" />
        </mxCell>
        <mxCell id="M_pwfH0sglw2_HS-6Io0-22" value="diplay home screen" style="html=1;align=left;spacingLeft=2;endArrow=block;rounded=0;edgeStyle=orthogonalEdgeStyle;curved=0;rounded=0;" edge="1" target="M_pwfH0sglw2_HS-6Io0-21" parent="aM9ryv3xv72pqoxQDRHE-5">
          <mxGeometry relative="1" as="geometry">
            <mxPoint x="50" y="290" as="sourcePoint" />
            <Array as="points">
              <mxPoint x="80" y="320" />
            </Array>
          </mxGeometry>
        </mxCell>
        <mxCell id="M_pwfH0sglw2_HS-6Io0-1" value="Database" style="shape=umlLifeline;perimeter=lifelinePerimeter;whiteSpace=wrap;html=1;container=0;dropTarget=0;collapsible=0;recursiveResize=0;outlineConnect=0;portConstraint=eastwest;newEdgeStyle={&quot;edgeStyle&quot;:&quot;elbowEdgeStyle&quot;,&quot;elbow&quot;:&quot;vertical&quot;,&quot;curved&quot;:0,&quot;rounded&quot;:0};" vertex="1" parent="1">
          <mxGeometry x="425" y="40" width="100" height="370" as="geometry" />
        </mxCell>
        <mxCell id="M_pwfH0sglw2_HS-6Io0-8" value="" style="html=1;points=[];perimeter=orthogonalPerimeter;outlineConnect=0;targetShapes=umlLifeline;portConstraint=eastwest;newEdgeStyle={&quot;edgeStyle&quot;:&quot;elbowEdgeStyle&quot;,&quot;elbow&quot;:&quot;vertical&quot;,&quot;curved&quot;:0,&quot;rounded&quot;:0};" vertex="1" parent="M_pwfH0sglw2_HS-6Io0-1">
          <mxGeometry x="45" y="180" width="10" height="40" as="geometry" />
        </mxCell>
        <mxCell id="M_pwfH0sglw2_HS-6Io0-35" value="" style="html=1;points=[];perimeter=orthogonalPerimeter;outlineConnect=0;targetShapes=umlLifeline;portConstraint=eastwest;newEdgeStyle={&quot;edgeStyle&quot;:&quot;elbowEdgeStyle&quot;,&quot;elbow&quot;:&quot;vertical&quot;,&quot;curved&quot;:0,&quot;rounded&quot;:0};" vertex="1" parent="M_pwfH0sglw2_HS-6Io0-1">
          <mxGeometry x="45" y="230" width="10" height="50" as="geometry" />
        </mxCell>
        <mxCell id="M_pwfH0sglw2_HS-6Io0-4" value="select register form" style="html=1;verticalAlign=bottom;endArrow=block;edgeStyle=elbowEdgeStyle;elbow=vertical;curved=0;rounded=0;" edge="1" parent="1" source="aM9ryv3xv72pqoxQDRHE-1" target="aM9ryv3xv72pqoxQDRHE-5">
          <mxGeometry width="80" relative="1" as="geometry">
            <mxPoint x="80" y="170" as="sourcePoint" />
            <mxPoint x="160" y="170" as="targetPoint" />
            <Array as="points">
              <mxPoint x="210" y="180" />
              <mxPoint x="140" y="160" />
              <mxPoint x="100" y="180" />
            </Array>
          </mxGeometry>
        </mxCell>
        <mxCell id="M_pwfH0sglw2_HS-6Io0-6" value="display register form" style="html=1;verticalAlign=bottom;endArrow=open;dashed=1;endSize=8;edgeStyle=elbowEdgeStyle;elbow=vertical;curved=0;rounded=0;" edge="1" parent="1" source="M_pwfH0sglw2_HS-6Io0-39" target="aM9ryv3xv72pqoxQDRHE-1">
          <mxGeometry x="-1" y="-91" relative="1" as="geometry">
            <mxPoint x="260" y="220" as="sourcePoint" />
            <mxPoint x="180" y="220" as="targetPoint" />
            <mxPoint x="90" y="81" as="offset" />
          </mxGeometry>
        </mxCell>
        <mxCell id="M_pwfH0sglw2_HS-6Io0-7" value="fill in form" style="html=1;verticalAlign=bottom;endArrow=block;edgeStyle=elbowEdgeStyle;elbow=vertical;curved=0;rounded=0;" edge="1" parent="1" target="aM9ryv3xv72pqoxQDRHE-5">
          <mxGeometry x="0.0028" y="-20" width="80" relative="1" as="geometry">
            <mxPoint x="90" y="240" as="sourcePoint" />
            <mxPoint x="170" y="240" as="targetPoint" />
            <mxPoint as="offset" />
          </mxGeometry>
        </mxCell>
        <mxCell id="M_pwfH0sglw2_HS-6Io0-9" value="send data to database" style="html=1;verticalAlign=bottom;endArrow=block;edgeStyle=elbowEdgeStyle;elbow=vertical;curved=0;rounded=0;" edge="1" parent="1" target="M_pwfH0sglw2_HS-6Io0-1">
          <mxGeometry width="80" relative="1" as="geometry">
            <mxPoint x="280" y="240" as="sourcePoint" />
            <mxPoint x="360" y="240" as="targetPoint" />
          </mxGeometry>
        </mxCell>
        <mxCell id="M_pwfH0sglw2_HS-6Io0-18" value="return result" style="html=1;verticalAlign=bottom;endArrow=open;dashed=1;endSize=8;edgeStyle=elbowEdgeStyle;elbow=vertical;curved=0;rounded=0;" edge="1" parent="1">
          <mxGeometry relative="1" as="geometry">
            <mxPoint x="470" y="310" as="sourcePoint" />
            <mxPoint x="280" y="310" as="targetPoint" />
          </mxGeometry>
        </mxCell>
        <mxCell id="M_pwfH0sglw2_HS-6Io0-20" value="display succesful notification" style="html=1;verticalAlign=bottom;endArrow=open;dashed=1;endSize=8;edgeStyle=elbowEdgeStyle;elbow=vertical;curved=0;rounded=0;" edge="1" parent="1">
          <mxGeometry relative="1" as="geometry">
            <mxPoint x="260" y="300" as="sourcePoint" />
            <mxPoint x="90" y="300" as="targetPoint" />
          </mxGeometry>
        </mxCell>
        <mxCell id="M_pwfH0sglw2_HS-6Io0-37" value="update and save data" style="html=1;align=left;spacingLeft=2;endArrow=block;rounded=0;edgeStyle=orthogonalEdgeStyle;curved=0;rounded=0;" edge="1" parent="1">
          <mxGeometry x="0.0118" relative="1" as="geometry">
            <mxPoint x="470" y="270" as="sourcePoint" />
            <Array as="points">
              <mxPoint x="500" y="300" />
            </Array>
            <mxPoint x="475" y="300" as="targetPoint" />
            <mxPoint as="offset" />
          </mxGeometry>
        </mxCell>
        <mxCell id="M_pwfH0sglw2_HS-6Io0-39" value="" style="html=1;points=[];perimeter=orthogonalPerimeter;outlineConnect=0;targetShapes=umlLifeline;portConstraint=eastwest;newEdgeStyle={&quot;edgeStyle&quot;:&quot;elbowEdgeStyle&quot;,&quot;elbow&quot;:&quot;vertical&quot;,&quot;curved&quot;:0,&quot;rounded&quot;:0};" vertex="1" parent="1">
          <mxGeometry x="85" y="180" width="10" height="80" as="geometry" />
        </mxCell>
        <mxCell id="M_pwfH0sglw2_HS-6Io0-41" value="" style="html=1;verticalAlign=bottom;endArrow=open;dashed=1;endSize=8;edgeStyle=elbowEdgeStyle;elbow=vertical;curved=0;rounded=0;" edge="1" parent="1" source="aM9ryv3xv72pqoxQDRHE-5" target="aM9ryv3xv72pqoxQDRHE-1">
          <mxGeometry relative="1" as="geometry">
            <mxPoint x="260" y="210" as="sourcePoint" />
            <mxPoint x="180" y="210" as="targetPoint" />
            <Array as="points">
              <mxPoint x="230" y="210" />
            </Array>
          </mxGeometry>
        </mxCell>
      </root>
    </mxGraphModel>
  </diagram>
  <diagram id="viIvSFqzloQNR-Unc6dk" name="Page-2">
    <mxGraphModel dx="1050" dy="549" grid="1" gridSize="10" guides="1" tooltips="1" connect="1" arrows="1" fold="1" page="1" pageScale="1" pageWidth="850" pageHeight="1100" math="0" shadow="0">
      <root>
        <mxCell id="0" />
        <mxCell id="1" parent="0" />
        <mxCell id="cHHZPzhzRVVPowfhkM0O-1" value="Visitor" style="shape=umlLifeline;perimeter=lifelinePerimeter;whiteSpace=wrap;html=1;container=0;dropTarget=0;collapsible=0;recursiveResize=0;outlineConnect=0;portConstraint=eastwest;newEdgeStyle={&quot;edgeStyle&quot;:&quot;elbowEdgeStyle&quot;,&quot;elbow&quot;:&quot;vertical&quot;,&quot;curved&quot;:0,&quot;rounded&quot;:0};" vertex="1" parent="1">
          <mxGeometry x="40" y="40" width="100" height="310" as="geometry" />
        </mxCell>
        <mxCell id="cHHZPzhzRVVPowfhkM0O-2" value="" style="html=1;points=[];perimeter=orthogonalPerimeter;outlineConnect=0;targetShapes=umlLifeline;portConstraint=eastwest;newEdgeStyle={&quot;edgeStyle&quot;:&quot;elbowEdgeStyle&quot;,&quot;elbow&quot;:&quot;vertical&quot;,&quot;curved&quot;:0,&quot;rounded&quot;:0};" vertex="1" parent="cHHZPzhzRVVPowfhkM0O-1">
          <mxGeometry x="45" y="250" width="10" height="30" as="geometry" />
        </mxCell>
        <mxCell id="cHHZPzhzRVVPowfhkM0O-3" value="App sytem" style="shape=umlLifeline;perimeter=lifelinePerimeter;whiteSpace=wrap;html=1;container=0;dropTarget=0;collapsible=0;recursiveResize=0;outlineConnect=0;portConstraint=eastwest;newEdgeStyle={&quot;edgeStyle&quot;:&quot;elbowEdgeStyle&quot;,&quot;elbow&quot;:&quot;vertical&quot;,&quot;curved&quot;:0,&quot;rounded&quot;:0};participant=label;" vertex="1" parent="1">
          <mxGeometry x="220" y="40" width="100" height="350" as="geometry" />
        </mxCell>
        <mxCell id="cHHZPzhzRVVPowfhkM0O-4" value="" style="html=1;points=[];perimeter=orthogonalPerimeter;outlineConnect=0;targetShapes=umlLifeline;portConstraint=eastwest;newEdgeStyle={&quot;edgeStyle&quot;:&quot;elbowEdgeStyle&quot;,&quot;elbow&quot;:&quot;vertical&quot;,&quot;curved&quot;:0,&quot;rounded&quot;:0};" vertex="1" parent="cHHZPzhzRVVPowfhkM0O-3">
          <mxGeometry x="45" y="80" width="10" height="40" as="geometry" />
        </mxCell>
        <mxCell id="cHHZPzhzRVVPowfhkM0O-5" value="display home srcenn" style="html=1;align=left;spacingLeft=2;endArrow=block;rounded=0;edgeStyle=orthogonalEdgeStyle;curved=0;rounded=0;" edge="1" parent="cHHZPzhzRVVPowfhkM0O-3" target="cHHZPzhzRVVPowfhkM0O-4">
          <mxGeometry relative="1" as="geometry">
            <mxPoint x="50" y="60" as="sourcePoint" />
            <Array as="points">
              <mxPoint x="80" y="90" />
            </Array>
          </mxGeometry>
        </mxCell>
        <mxCell id="cHHZPzhzRVVPowfhkM0O-6" value="" style="html=1;points=[];perimeter=orthogonalPerimeter;outlineConnect=0;targetShapes=umlLifeline;portConstraint=eastwest;newEdgeStyle={&quot;edgeStyle&quot;:&quot;elbowEdgeStyle&quot;,&quot;elbow&quot;:&quot;vertical&quot;,&quot;curved&quot;:0,&quot;rounded&quot;:0};" vertex="1" parent="cHHZPzhzRVVPowfhkM0O-3">
          <mxGeometry x="45" y="130" width="10" height="80" as="geometry" />
        </mxCell>
        <mxCell id="cHHZPzhzRVVPowfhkM0O-7" value="" style="html=1;points=[];perimeter=orthogonalPerimeter;outlineConnect=0;targetShapes=umlLifeline;portConstraint=eastwest;newEdgeStyle={&quot;edgeStyle&quot;:&quot;elbowEdgeStyle&quot;,&quot;elbow&quot;:&quot;vertical&quot;,&quot;curved&quot;:0,&quot;rounded&quot;:0};" vertex="1" parent="cHHZPzhzRVVPowfhkM0O-3">
          <mxGeometry x="45" y="230" width="10" height="50" as="geometry" />
        </mxCell>
        <mxCell id="cHHZPzhzRVVPowfhkM0O-8" value="" style="html=1;points=[];perimeter=orthogonalPerimeter;outlineConnect=0;targetShapes=umlLifeline;portConstraint=eastwest;newEdgeStyle={&quot;edgeStyle&quot;:&quot;elbowEdgeStyle&quot;,&quot;elbow&quot;:&quot;vertical&quot;,&quot;curved&quot;:0,&quot;rounded&quot;:0};" vertex="1" parent="cHHZPzhzRVVPowfhkM0O-3">
          <mxGeometry x="45" y="310" width="10" height="40" as="geometry" />
        </mxCell>
        <mxCell id="cHHZPzhzRVVPowfhkM0O-9" value="diplay home screen" style="html=1;align=left;spacingLeft=2;endArrow=block;rounded=0;edgeStyle=orthogonalEdgeStyle;curved=0;rounded=0;" edge="1" parent="cHHZPzhzRVVPowfhkM0O-3" target="cHHZPzhzRVVPowfhkM0O-8">
          <mxGeometry relative="1" as="geometry">
            <mxPoint x="50" y="290" as="sourcePoint" />
            <Array as="points">
              <mxPoint x="80" y="320" />
            </Array>
          </mxGeometry>
        </mxCell>
        <mxCell id="cHHZPzhzRVVPowfhkM0O-10" value="Database" style="shape=umlLifeline;perimeter=lifelinePerimeter;whiteSpace=wrap;html=1;container=0;dropTarget=0;collapsible=0;recursiveResize=0;outlineConnect=0;portConstraint=eastwest;newEdgeStyle={&quot;edgeStyle&quot;:&quot;elbowEdgeStyle&quot;,&quot;elbow&quot;:&quot;vertical&quot;,&quot;curved&quot;:0,&quot;rounded&quot;:0};" vertex="1" parent="1">
          <mxGeometry x="425" y="40" width="100" height="370" as="geometry" />
        </mxCell>
        <mxCell id="cHHZPzhzRVVPowfhkM0O-11" value="" style="html=1;points=[];perimeter=orthogonalPerimeter;outlineConnect=0;targetShapes=umlLifeline;portConstraint=eastwest;newEdgeStyle={&quot;edgeStyle&quot;:&quot;elbowEdgeStyle&quot;,&quot;elbow&quot;:&quot;vertical&quot;,&quot;curved&quot;:0,&quot;rounded&quot;:0};" vertex="1" parent="cHHZPzhzRVVPowfhkM0O-10">
          <mxGeometry x="45" y="180" width="10" height="40" as="geometry" />
        </mxCell>
        <mxCell id="cHHZPzhzRVVPowfhkM0O-12" value="" style="html=1;points=[];perimeter=orthogonalPerimeter;outlineConnect=0;targetShapes=umlLifeline;portConstraint=eastwest;newEdgeStyle={&quot;edgeStyle&quot;:&quot;elbowEdgeStyle&quot;,&quot;elbow&quot;:&quot;vertical&quot;,&quot;curved&quot;:0,&quot;rounded&quot;:0};" vertex="1" parent="cHHZPzhzRVVPowfhkM0O-10">
          <mxGeometry x="45" y="230" width="10" height="50" as="geometry" />
        </mxCell>
        <mxCell id="cHHZPzhzRVVPowfhkM0O-13" value="select register form" style="html=1;verticalAlign=bottom;endArrow=block;edgeStyle=elbowEdgeStyle;elbow=vertical;curved=0;rounded=0;" edge="1" parent="1" source="cHHZPzhzRVVPowfhkM0O-1" target="cHHZPzhzRVVPowfhkM0O-3">
          <mxGeometry width="80" relative="1" as="geometry">
            <mxPoint x="80" y="170" as="sourcePoint" />
            <mxPoint x="160" y="170" as="targetPoint" />
            <Array as="points">
              <mxPoint x="210" y="180" />
              <mxPoint x="140" y="160" />
              <mxPoint x="100" y="180" />
            </Array>
          </mxGeometry>
        </mxCell>
        <mxCell id="cHHZPzhzRVVPowfhkM0O-14" value="display register form" style="html=1;verticalAlign=bottom;endArrow=open;dashed=1;endSize=8;edgeStyle=elbowEdgeStyle;elbow=vertical;curved=0;rounded=0;" edge="1" parent="1" source="cHHZPzhzRVVPowfhkM0O-20" target="cHHZPzhzRVVPowfhkM0O-1">
          <mxGeometry x="-1" y="-91" relative="1" as="geometry">
            <mxPoint x="260" y="220" as="sourcePoint" />
            <mxPoint x="180" y="220" as="targetPoint" />
            <mxPoint x="90" y="81" as="offset" />
          </mxGeometry>
        </mxCell>
        <mxCell id="cHHZPzhzRVVPowfhkM0O-15" value="fill in form" style="html=1;verticalAlign=bottom;endArrow=block;edgeStyle=elbowEdgeStyle;elbow=vertical;curved=0;rounded=0;" edge="1" parent="1" target="cHHZPzhzRVVPowfhkM0O-3">
          <mxGeometry x="0.0028" y="-20" width="80" relative="1" as="geometry">
            <mxPoint x="90" y="240" as="sourcePoint" />
            <mxPoint x="170" y="240" as="targetPoint" />
            <mxPoint as="offset" />
          </mxGeometry>
        </mxCell>
        <mxCell id="cHHZPzhzRVVPowfhkM0O-16" value="send data to database" style="html=1;verticalAlign=bottom;endArrow=block;edgeStyle=elbowEdgeStyle;elbow=vertical;curved=0;rounded=0;" edge="1" parent="1" target="cHHZPzhzRVVPowfhkM0O-10">
          <mxGeometry width="80" relative="1" as="geometry">
            <mxPoint x="280" y="240" as="sourcePoint" />
            <mxPoint x="360" y="240" as="targetPoint" />
          </mxGeometry>
        </mxCell>
        <mxCell id="cHHZPzhzRVVPowfhkM0O-17" value="return result" style="html=1;verticalAlign=bottom;endArrow=open;dashed=1;endSize=8;edgeStyle=elbowEdgeStyle;elbow=vertical;curved=0;rounded=0;" edge="1" parent="1">
          <mxGeometry relative="1" as="geometry">
            <mxPoint x="470" y="310" as="sourcePoint" />
            <mxPoint x="280" y="310" as="targetPoint" />
          </mxGeometry>
        </mxCell>
        <mxCell id="cHHZPzhzRVVPowfhkM0O-18" value="display succesful notification" style="html=1;verticalAlign=bottom;endArrow=open;dashed=1;endSize=8;edgeStyle=elbowEdgeStyle;elbow=vertical;curved=0;rounded=0;" edge="1" parent="1">
          <mxGeometry relative="1" as="geometry">
            <mxPoint x="260" y="300" as="sourcePoint" />
            <mxPoint x="90" y="300" as="targetPoint" />
          </mxGeometry>
        </mxCell>
        <mxCell id="cHHZPzhzRVVPowfhkM0O-19" value="update and save data" style="html=1;align=left;spacingLeft=2;endArrow=block;rounded=0;edgeStyle=orthogonalEdgeStyle;curved=0;rounded=0;" edge="1" parent="1">
          <mxGeometry x="0.0118" relative="1" as="geometry">
            <mxPoint x="470" y="270" as="sourcePoint" />
            <Array as="points">
              <mxPoint x="500" y="300" />
            </Array>
            <mxPoint x="475" y="300" as="targetPoint" />
            <mxPoint as="offset" />
          </mxGeometry>
        </mxCell>
        <mxCell id="cHHZPzhzRVVPowfhkM0O-20" value="" style="html=1;points=[];perimeter=orthogonalPerimeter;outlineConnect=0;targetShapes=umlLifeline;portConstraint=eastwest;newEdgeStyle={&quot;edgeStyle&quot;:&quot;elbowEdgeStyle&quot;,&quot;elbow&quot;:&quot;vertical&quot;,&quot;curved&quot;:0,&quot;rounded&quot;:0};" vertex="1" parent="1">
          <mxGeometry x="85" y="180" width="10" height="80" as="geometry" />
        </mxCell>
        <mxCell id="cHHZPzhzRVVPowfhkM0O-21" value="" style="html=1;verticalAlign=bottom;endArrow=open;dashed=1;endSize=8;edgeStyle=elbowEdgeStyle;elbow=vertical;curved=0;rounded=0;" edge="1" parent="1" source="cHHZPzhzRVVPowfhkM0O-3" target="cHHZPzhzRVVPowfhkM0O-1">
          <mxGeometry relative="1" as="geometry">
            <mxPoint x="260" y="210" as="sourcePoint" />
            <mxPoint x="180" y="210" as="targetPoint" />
            <Array as="points">
              <mxPoint x="230" y="210" />
            </Array>
          </mxGeometry>
        </mxCell>
      </root>
    </mxGraphModel>
  </diagram>
</mxfile>
